PathFileType	4	(x/y/z)	A01_PREF_T0018.trc
DataRate	CameraRate	NumFrames	NumMarkers	Units	OrigDataRate	OrigDataStartFrame	OrigNumFrames
240	240	4	48	mm	240	107	285
Frame#	Time	TOP_HEAD			R_AC			L_AC			R_ASIS			L_ASIS			R_PSIS			L_PSIS			SACRAL			L_IC			R_IC			L_GT			R_GT			R_LAT_KNEE			R_MED_KNEE			L_MED_KNEE			L_LAT_KNEE			R_TOE			L_TOE			R_1ST_MET			L_1ST_MET			L_5TH_MET			R_5TH_MET			R_LAT_ANK			R_MED_ANK			L_MED_ANK			L_LAT_ANK			L_HEEL_SUP			R_HEEL_SUP			L_HEEL_LAT			R_HEEL_LAT			L_HEEL_MED			R_HEEL_MED			R_SHANK_PROX_POST			R_SHANK_PROX_ANT			R_SHANK_DIST_ANT			R_SHANK_DIST_POST			R_THIGH_PROX_POST			R_THIGH_PROX_ANT			R_THIGH_DIST_ANT			R_THIGH_DIST_POST			L_SHANK_PROX_ANT			L_SHANK_PROX_POST			L_SHANK_DIST_POST			L_SHANK_DIST_ANT			L_THIGH_PROX_ANT			L_THIGH_PROX_POST			L_THIGH_DIST_POST			L_THIGH_DIST_ANT			
		X1	Y1	Z1	X2	Y2	Z2	X3	Y3	Z3	X4	Y4	Z4	X5	Y5	Z5	X6	Y6	Z6	X7	Y7	Z7	X8	Y8	Z8	X9	Y9	Z9	X10	Y10	Z10	X11	Y11	Z11	X12	Y12	Z12	X13	Y13	Z13	X14	Y14	Z14	X15	Y15	Z15	X16	Y16	Z16	X17	Y17	Z17	X18	Y18	Z18	X19	Y19	Z19	X20	Y20	Z20	X21	Y21	Z21	X22	Y22	Z22	X23	Y23	Z23	X24	Y24	Z24	X25	Y25	Z25	X26	Y26	Z26	X27	Y27	Z27	X28	Y28	Z28	X29	Y29	Z29	X30	Y30	Z30	X31	Y31	Z31	X32	Y32	Z32	X33	Y33	Z33	X34	Y34	Z34	X35	Y35	Z35	X36	Y36	Z36	X37	Y37	Z37	X38	Y38	Z38	X39	Y39	Z39	X40	Y40	Z40	X41	Y41	Z41	X42	Y42	Z42	X43	Y43	Z43	X44	Y44	Z44	X45	Y45	Z45	X46	Y46	Z46	X47	Y47	Z47	X48	Y48	Z48	

107	0.44322	38.925	1750.5	299	-196.58	1578.3	538.34	-206.12	1559	81.901	-207.06	1112.4	536.5	-201.95	1033.6	190.75	-423.27	1093.6	413	-414.03	1101.3	280.65	-434.48	1067.3	345.84	-224.18	1150.1	144.71	-249.79	1214.6	538.78	-270.75	957.4	153.45	-262.27	996.76	586.47	-134.23	602.67	542.85	-81.638	602.67	420.25	-279.96	555.66	377.03	-303.51	567.61	221.03	44.545	108.47	499.76	-224.35	78.191	268.37	-26.473	83.303	437.99	-304.1	55.887	326.48	-338.61	48.389	200.28	-79.408	77.788	561.24	-191.96	137.8	510.83	-161.95	145.73	413.52	-417.24	138.7	316.98	-450.8	136.69	249.64	-545.01	92.581	291.73	-273.76	97.673	434.52	-537.66	63.35	259.85	-273.66	76.063	471.5	-525.94	61.694	323.5	-257.8	71.094	412.94	-241.74	437.07	520.84	-180.87	422.93	558.57	-180.99	348.18	544.61	-230.58	354.52	519.01	-249.39	846.68	571.54	-191.49	889.45	577.64	-156.12	805.22	574.16	-211.67	765.32	565.01	-275.98	476.88	232.29	-330.06	488.78	222.71	-349.5	429.42	231.05	-295.74	424.7	238.99	-221.32	812.85	192.68	-290.51	824.99	176.65	-286.76	749.16	189.47	-223.28	739.13	204.07
108	0.4474	44.242	1750.1	299.58	-191.25	1578	538.62	-200.69	1559	82.296	-201.57	1111.8	536.57	-196.99	1033.2	190.8	-417.89	1093.3	413.36	-408.82	1101.1	281.02	-429.25	1067.2	346.21	-219.14	1150	144.87	-244.24	1214.1	538.98	-266.11	957.12	153.5	-256.69	996.23	586.63	-128.31	602.06	542.2	-76.057	602.54	419.49	-277.7	555.39	377.24	-301.19	567.45	221.23	61.573	112.1	500.59	-224.16	78.03	268.34	-8.7278	85.019	438.82	-303.99	55.87	326.49	-338.52	48.457	200.3	-61.701	78.693	562.06	-175.68	135.72	511.36	-145.7	144.09	413.99	-416.77	139.04	317.08	-450.32	137.2	249.7	-544.75	93.169	291.77	-256.36	93.331	435.04	-537.5	63.928	259.89	-255.78	71.848	472.08	-525.79	62.253	323.53	-239.67	67.052	413.63	-232.37	433.94	520.68	-171.14	421.27	558.37	-169.56	346.51	544.54	-219.31	351.64	518.94	-243.93	846.06	571.28	-186.02	888.78	577.61	-150.67	804.55	573.83	-206.22	764.71	564.47	-274.02	476.62	232.44	-328.04	488.77	222.87	-347.75	429.49	231.2	-294	424.53	239.13	-217.49	812.4	192.78	-286.6	824.86	176.77	-283.21	749.01	189.6	-219.8	738.68	204.17
109	0.45158	49.576	1749.7	300.16	-185.88	1577.6	538.9	-195.26	1559	82.708	-196.08	1111.1	536.66	-192.03	1032.7	190.85	-412.48	1093	413.75	-403.59	1100.9	281.42	-424.01	1066.9	346.6	-214.1	1149.8	145.04	-238.63	1213.6	539.18	-261.47	956.81	153.55	-251.09	995.64	586.79	-122.43	601.38	541.55	-70.549	602.32	418.69	-275.42	555.09	377.44	-298.85	567.27	221.43	78.383	115.87	501.31	-223.97	77.869	268.31	8.808	86.92	439.58	-303.88	55.852	326.49	-338.42	48.525	200.31	-44.118	79.779	562.83	-159.48	133.84	511.92	-129.57	142.62	414.47	-416.29	139.37	317.19	-449.83	137.7	249.77	-544.49	93.763	291.81	-239.02	89.232	435.62	-537.34	64.509	259.92	-237.93	67.883	472.72	-525.64	62.815	323.57	-221.62	63.265	414.37	-222.99	430.83	520.58	-161.42	419.63	558.18	-158.16	344.9	544.5	-208.04	348.83	518.91	-238.48	845.37	571.02	-180.56	888.02	577.58	-145.24	803.8	573.52	-200.81	764.04	563.96	-272.04	476.35	232.59	-326.01	488.74	223.03	-345.98	429.54	231.35	-292.25	424.34	239.27	-213.66	811.91	192.87	-282.68	824.7	176.89	-279.63	748.84	189.72	-216.31	738.21	204.26
110	0.45577	54.928	1749.2	300.73	-180.47	1577.3	539.21	-189.84	1558.9	83.137	-190.58	1110.4	536.77	-187.06	1032.1	190.91	-407.05	1092.7	414.16	-398.34	1100.6	281.84	-418.74	1066.7	347.01	-209.07	1149.6	145.2	-232.98	1213	539.41	-256.82	956.47	153.6	-245.46	995	586.96	-116.61	600.63	540.9	-65.114	602.02	417.85	-273.1	554.78	377.63	-296.49	567.08	221.63	94.967	119.77	501.9	-223.78	77.706	268.28	26.124	88.999	440.25	-303.78	55.831	326.5	-338.32	48.594	200.33	-26.664	81.04	563.54	-143.35	132.15	512.5	-113.57	141.34	414.96	-415.81	139.71	317.28	-449.34	138.2	249.83	-544.22	94.363	291.84	-221.75	85.376	436.27	-537.17	65.094	259.96	-220.15	64.166	473.42	-525.49	63.381	323.6	-203.66	59.731	415.17	-213.62	427.75	520.54	-151.72	418.02	558.01	-146.8	343.35	544.47	-196.81	346.1	518.94	-233.04	844.63	570.79	-175.09	887.2	577.56	-139.83	802.97	573.22	-195.43	763.29	563.47	-270.05	476.06	232.74	-323.96	488.7	223.19	-344.2	429.57	231.5	-290.48	424.13	239.41	-209.81	811.4	192.96	-278.74	824.51	177.01	-276.04	748.64	189.85	-212.81	737.72	204.34
